<svg width="26" height="28" fill="none" xmlns="http://www.w3.org/2000/svg"><path d="M16.401 13.782a5.323 5.323 0 0 0-1.4-.692c-.303-.1-.639-.196-.986-.288a19.613 19.613 0 0 0-1.107-.29 9.555 9.555 0 0 1-1.555-.494 1.631 1.631 0 0 1-.668-.522 1.039 1.039 0 0 1-.173-.66c0-.252.078-.498.222-.697.202-.254.464-.446.758-.554a4.063 4.063 0 0 1 1.54-.252c.406-.007.81.05 1.2.17.257.079.5.206.717.376.14.108.26.244.352.4.067.136.159.257.269.355.11.097.237.17.374.216a1.01 1.01 0 0 0 .828-.09c.126-.072.237-.171.327-.29a1.249 1.249 0 0 0 .11-1.296 3.605 3.605 0 0 0-.907-1.118 4.232 4.232 0 0 0-1.428-.78A5.833 5.833 0 0 0 13.034 7a6.043 6.043 0 0 0-2.324.408 3.875 3.875 0 0 0-1.708 1.333 3.651 3.651 0 0 0-.654 2.096 3.486 3.486 0 0 0 .628 2.09c.41.556.946.987 1.558 1.251.462.192.935.35 1.416.476.008.004.015.012.023.014.208.068.54.158 1.019.269.187.044.363.092.538.14.018.004.042.01.059.016l.02.002c.268.075.527.15.764.23.292.09.57.226.827.4.16.109.294.256.393.43.095.212.14.447.128.682.015.305-.067.606-.232.854-.223.313-.525.55-.869.683a3.841 3.841 0 0 1-1.61.294 3.754 3.754 0 0 1-1.846-.402 1.957 1.957 0 0 1-.667-.638 1.238 1.238 0 0 1-.219-.587c0-.309-.114-.606-.317-.825a1.046 1.046 0 0 0-.766-.341c-.288 0-.563.123-.766.341a1.214 1.214 0 0 0-.318.825c.018.689.228 1.355.603 1.914.374.58.873 1.055 1.454 1.385a5.727 5.727 0 0 0 2.841.661 5.795 5.795 0 0 0 2.442-.472 4.07 4.07 0 0 0 1.804-1.486 3.872 3.872 0 0 0 .632-2.247 3.829 3.829 0 0 0-.406-1.785 3.594 3.594 0 0 0-1.08-1.228v-.001Zm7.823 2.19a13.142 13.142 0 0 0-.397-5.73 12.436 12.436 0 0 0-2.782-4.905A11.258 11.258 0 0 0 16.49 2.34a10.59 10.59 0 0 0-5.322-.427 6.591 6.591 0 0 0-4.23-.637C5.502 1.54 4.177 2.28 3.146 3.39a7.796 7.796 0 0 0-1.962 4.085 8.107 8.107 0 0 0 .592 4.554 13.141 13.141 0 0 0 .397 5.731 12.435 12.435 0 0 0 2.782 4.904 11.257 11.257 0 0 0 4.554 2.996c1.717.595 3.541.742 5.321.428a6.591 6.591 0 0 0 4.23.637c1.436-.265 2.762-1.003 3.793-2.113a7.795 7.795 0 0 0 1.961-4.085 8.108 8.108 0 0 0-.591-4.554Zm-6.35 8.528a4.61 4.61 0 0 1-2.35-.651 1.02 1.02 0 0 0-.734-.124 8.56 8.56 0 0 1-4.033-.105 8.97 8.97 0 0 1-3.604-1.954 9.842 9.842 0 0 1-2.481-3.426A10.549 10.549 0 0 1 3.791 14c.001-.648.06-1.294.178-1.93.049-.27.008-.549-.115-.79a5.597 5.597 0 0 1-.555-3.269 5.41 5.41 0 0 1 1.38-2.973 4.756 4.756 0 0 1 2.76-1.485 4.58 4.58 0 0 1 3.036.598c.224.133.484.177.735.124a8.56 8.56 0 0 1 4.033.105 8.97 8.97 0 0 1 3.603 1.954 9.84 9.84 0 0 1 2.48 3.426c.582 1.326.883 2.774.882 4.24-.001.648-.06 1.294-.178 1.93-.049.27-.008.549.115.79.409.799.617 1.699.604 2.611a5.556 5.556 0 0 1-.678 2.59 5.068 5.068 0 0 1-1.78 1.89 4.607 4.607 0 0 1-2.417.689Z" fill="#fff"/></svg>