<svg width="27" height="27" viewBox="0 0 27 27" fill="none" xmlns="http://www.w3.org/2000/svg">
<path d="M19.6648 6.28129C19.4054 6.28129 19.1519 6.3582 18.9362 6.5023C18.7206 6.6464 18.5525 6.85122 18.4532 7.09085C18.354 7.33048 18.328 7.59417 18.3786 7.84856C18.4292 8.10295 18.5541 8.33663 18.7375 8.52003C18.9209 8.70344 19.1546 8.82834 19.409 8.87894C19.6634 8.92955 19.927 8.90357 20.1667 8.80432C20.4063 8.70506 20.6111 8.53697 20.7552 8.32131C20.8993 8.10564 20.9762 7.85209 20.9762 7.59271C20.9762 7.2449 20.8381 6.91133 20.5921 6.66539C20.3462 6.41945 20.0126 6.28129 19.6648 6.28129ZM24.692 8.926C24.6707 8.01925 24.5009 7.12213 24.1892 6.27036C23.9114 5.54157 23.4789 4.88164 22.9215 4.336C22.3804 3.77583 21.7189 3.34606 20.9872 3.07921C20.1376 2.75809 19.2395 2.58438 18.3315 2.56557C17.1731 2.5 16.8015 2.5 13.829 2.5C10.8564 2.5 10.4848 2.5 9.32639 2.56557C8.41839 2.58438 7.52027 2.75809 6.67075 3.07921C5.94037 3.34877 5.27947 3.77816 4.73639 4.336C4.17622 4.87716 3.74645 5.53862 3.4796 6.27036C3.15848 7.11988 2.98477 8.018 2.96596 8.926C2.90039 10.0844 2.90039 10.456 2.90039 13.4286C2.90039 16.4011 2.90039 16.7727 2.96596 17.9311C2.98477 18.8391 3.15848 19.7373 3.4796 20.5868C3.74645 21.3185 4.17622 21.98 4.73639 22.5211C5.27947 23.079 5.94037 23.5084 6.67075 23.7779C7.52027 24.0991 8.41839 24.2728 9.32639 24.2916C10.4848 24.3571 10.8564 24.3571 13.829 24.3571C16.8015 24.3571 17.1731 24.3571 18.3315 24.2916C19.2395 24.2728 20.1376 24.0991 20.9872 23.7779C21.7189 23.5111 22.3804 23.0813 22.9215 22.5211C23.4813 21.9775 23.9142 21.317 24.1892 20.5868C24.5009 19.735 24.6707 18.8379 24.692 17.9311C24.692 16.7727 24.7575 16.4011 24.7575 13.4286C24.7575 10.456 24.7575 10.0844 24.692 8.926ZM22.7248 17.8C22.7169 18.4937 22.5912 19.181 22.3532 19.8327C22.1788 20.3083 21.8985 20.7381 21.5336 21.0895C21.1791 21.4507 20.7503 21.7304 20.2768 21.9091C19.6252 22.1471 18.9378 22.2728 18.2441 22.2807C17.1512 22.3354 16.7469 22.3463 13.8727 22.3463C10.9985 22.3463 10.5941 22.3463 9.50125 22.2807C8.78094 22.2942 8.0637 22.1833 7.3811 21.9529C6.92842 21.765 6.51923 21.486 6.17896 21.1332C5.81623 20.7821 5.53947 20.352 5.37025 19.8764C5.10343 19.2154 4.95545 18.5125 4.9331 17.8C4.9331 16.7071 4.86753 16.3028 4.86753 13.4286C4.86753 10.5544 4.86753 10.15 4.9331 9.05714C4.938 8.34794 5.06747 7.64511 5.3156 6.98071C5.508 6.51943 5.80331 6.10824 6.17896 5.77857C6.51099 5.40281 6.92133 5.10438 7.3811 4.90429C8.04726 4.6639 8.74936 4.53827 9.45753 4.53271C10.5504 4.53271 10.9547 4.46714 13.829 4.46714C16.7032 4.46714 17.1075 4.46714 18.2004 4.53271C18.8941 4.54067 19.5814 4.66631 20.2331 4.90429C20.7297 5.0886 21.1755 5.38825 21.5336 5.77857C21.8917 6.11427 22.1716 6.5247 22.3532 6.98071C22.5961 7.64619 22.7219 8.34873 22.7248 9.05714C22.7795 10.15 22.7904 10.5544 22.7904 13.4286C22.7904 16.3028 22.7795 16.7071 22.7248 17.8ZM13.829 7.82221C12.7206 7.82437 11.6377 8.15502 10.7172 8.77236C9.7967 9.38971 9.07982 10.2661 8.65716 11.2907C8.23451 12.3153 8.12504 13.4422 8.34259 14.529C8.56015 15.6158 9.09496 16.6137 9.87946 17.3967C10.664 18.1797 11.6629 18.7126 12.7502 18.928C13.8374 19.1434 14.9641 19.0318 15.9879 18.6071C17.0117 18.1825 17.8866 17.4639 18.5022 16.5422C19.1177 15.6204 19.4462 14.5369 19.4462 13.4286C19.4477 12.691 19.3033 11.9604 19.0214 11.2789C18.7395 10.5973 18.3256 9.97821 17.8035 9.45718C17.2815 8.93615 16.6616 8.52348 15.9795 8.24289C15.2974 7.9623 14.5665 7.81933 13.829 7.82221ZM13.829 17.0678C13.1092 17.0678 12.4056 16.8543 11.8071 16.4545C11.2087 16.0546 10.7422 15.4862 10.4668 14.8212C10.1913 14.1563 10.1193 13.4245 10.2597 12.7186C10.4001 12.0127 10.7467 11.3642 11.2556 10.8553C11.7646 10.3463 12.413 9.9997 13.119 9.85928C13.8249 9.71886 14.5566 9.79093 15.2216 10.0664C15.8866 10.3418 16.455 10.8083 16.8549 11.4067C17.2547 12.0052 17.4682 12.7088 17.4682 13.4286C17.4682 13.9065 17.374 14.3797 17.1912 14.8212C17.0083 15.2628 16.7402 15.664 16.4023 16.0019C16.0643 16.3398 15.6632 16.6079 15.2216 16.7908C14.7801 16.9737 14.3069 17.0678 13.829 17.0678Z" fill="white"></path>
</svg>
