<svg width="27" height="27" fill="none" xmlns="http://www.w3.org/2000/svg"><path d="M25.355 4.631a1.092 1.092 0 0 0-1.65-.94 8.174 8.174 0 0 1-2.048.868 5.63 5.63 0 0 0-3.688-1.357 5.718 5.718 0 0 0-5.708 5.533 12.056 12.056 0 0 1-7.447-4.289 1.106 1.106 0 0 0-.936-.398 1.092 1.092 0 0 0-.858.546 5.766 5.766 0 0 0-.264 5.212h-.003a1.138 1.138 0 0 0-.542.974c-.001.16.008.32.03.48a5.666 5.666 0 0 0 1.713 3.619 1.09 1.09 0 0 0-.072.841 5.687 5.687 0 0 0 2.582 3.194 8.158 8.158 0 0 1-3.924.49 1.093 1.093 0 0 0-.727 2.003 14.144 14.144 0 0 0 7.661 2.252 13.976 13.976 0 0 0 13.623-10.232c.386-1.294.582-2.636.585-3.985l-.002-.219a6.306 6.306 0 0 0 1.675-4.592Zm-3.613 3.51c-.181.214-.273.489-.256.768a11.829 11.829 0 0 1-.486 3.9 11.678 11.678 0 0 1-11.526 8.665c-.938 0-1.874-.11-2.786-.329a10.359 10.359 0 0 0 3.215-1.709 1.093 1.093 0 0 0-.658-1.952 3.506 3.506 0 0 1-2.42-1.022c.164-.03.326-.068.487-.114a1.093 1.093 0 0 0-.088-2.124 3.496 3.496 0 0 1-2.459-1.886c.198.027.397.044.596.05a1.115 1.115 0 0 0 1.075-.76A1.093 1.093 0 0 0 6 10.385a3.492 3.492 0 0 1-1.55-3.138 14.223 14.223 0 0 0 8.972 3.804 1.116 1.116 0 0 0 .893-.394 1.093 1.093 0 0 0 .225-.947 3.448 3.448 0 0 1-.095-.797 3.53 3.53 0 0 1 4.923-3.237 3.48 3.48 0 0 1 1.165.826 1.086 1.086 0 0 0 1.006.326c.45-.087.892-.205 1.325-.352a7.301 7.301 0 0 1-1.121 1.665Z" fill="#fff"/></svg>