<svg width="26" height="28" viewBox="0 0 26 28" fill="none" xmlns="http://www.w3.org/2000/svg">
<path d="M16.401 13.7817C15.9669 13.4815 15.4957 13.2487 15.0013 13.0899C14.698 12.9907 14.3622 12.8939 14.0155 12.8017C13.7122 12.7107 13.3525 12.6174 12.9083 12.5124C12.3783 12.3927 11.8581 12.2273 11.3527 12.0177C11.0922 11.9088 10.8623 11.7291 10.6853 11.4962C10.5558 11.3057 10.4943 11.0713 10.512 10.8359C10.5116 10.5835 10.5898 10.3383 10.7341 10.1394C10.9361 9.88466 11.198 9.69323 11.4924 9.58522C11.9876 9.40198 12.5095 9.3166 13.0329 9.33323C13.4379 9.32599 13.8417 9.38339 14.2311 9.50356C14.4893 9.58181 14.7326 9.70902 14.9493 9.87923C15.0895 9.98697 15.2091 10.1228 15.3014 10.2794C15.3683 10.4153 15.4595 10.5357 15.5698 10.6336C15.68 10.7314 15.8072 10.8048 15.9439 10.8495C16.0806 10.8942 16.2241 10.9094 16.3663 10.8941C16.5085 10.8788 16.6464 10.8334 16.7722 10.7605C16.898 10.6875 17.0092 10.5885 17.0993 10.4691C17.1894 10.3498 17.2567 10.2124 17.2973 10.0648C17.338 9.91733 17.3511 9.76263 17.3359 9.60963C17.3208 9.45664 17.2777 9.30838 17.2092 9.17339C16.9807 8.73825 16.6722 8.35792 16.3024 8.05573C15.8752 7.70231 15.3907 7.43763 14.8735 7.27523C14.2765 7.08528 13.6565 6.99248 13.034 6.99989C12.2427 6.98155 11.4551 7.11996 10.7103 7.40823C10.0367 7.6723 9.44496 8.13375 9.00184 8.74056C8.57742 9.34393 8.34765 10.0801 8.34751 10.8371C8.32994 11.5906 8.55158 12.3281 8.97584 12.9277C9.38543 13.4833 9.92234 13.9143 10.5337 14.1784C10.9956 14.3698 11.4686 14.5288 11.9496 14.6544C11.9583 14.6579 11.9648 14.6661 11.9734 14.6684C12.1814 14.7361 12.5129 14.8259 12.9918 14.9367C13.1792 14.9811 13.3547 15.0289 13.5302 15.0767C13.5475 15.0814 13.5724 15.0872 13.5887 15.0931L13.6082 15.0954C13.8768 15.1701 14.1358 15.2459 14.373 15.3241C14.6645 15.4159 14.9427 15.551 15.1996 15.7254C15.3598 15.8338 15.4944 15.9807 15.5928 16.1547C15.6881 16.367 15.7321 16.6018 15.7207 16.8372C15.7357 17.142 15.6539 17.4432 15.4888 17.6912C15.2659 18.0036 14.9643 18.2405 14.62 18.3737C14.1068 18.587 13.5589 18.687 13.0091 18.6677C12.3732 18.694 11.7407 18.5564 11.1642 18.2664C10.8979 18.1137 10.6692 17.8949 10.4968 17.6282C10.3759 17.4576 10.3003 17.2547 10.278 17.0414C10.278 16.732 10.1639 16.4352 9.96071 16.2164C9.75754 15.9976 9.48199 15.8747 9.19468 15.8747C8.90736 15.8747 8.63181 15.9976 8.42864 16.2164C8.22548 16.4352 8.11134 16.732 8.11134 17.0414C8.1292 17.7298 8.33908 18.3965 8.71368 18.9547C9.08804 19.5353 9.58671 20.0103 10.1675 20.3396C11.0512 20.8039 12.0262 21.0309 13.0091 21.0011C13.8443 21.0228 14.675 20.8621 15.4509 20.5286C16.1722 20.2305 16.7985 19.7149 17.2547 19.0434C17.6883 18.3892 17.9106 17.5998 17.8873 16.7964C17.8974 16.1736 17.7574 15.5586 17.4811 15.0114C17.2142 14.5174 16.8445 14.0969 16.401 13.7829V13.7817ZM24.2238 15.9727C24.5158 14.0554 24.3799 12.0907 23.8271 10.2412C23.2743 8.39173 22.3206 6.71051 21.0449 5.33664C19.7691 3.96276 18.208 2.93571 16.4906 2.34041C14.7732 1.74511 12.9489 1.59868 11.1685 1.91323C9.85401 1.23448 8.37628 1.0119 6.93929 1.27619C5.50231 1.54049 4.17694 2.27864 3.14613 3.38874C2.11532 4.49885 1.4299 5.92617 1.18448 7.47369C0.93906 9.0212 1.14575 10.6126 1.77601 12.0282C1.48417 13.9453 1.62029 15.9097 2.17309 17.759C2.7259 19.6082 3.67952 21.2892 4.95511 22.6629C6.23069 24.0366 7.79159 25.0636 9.50875 25.6589C11.2259 26.2543 13.05 26.4008 14.8302 26.0866C16.1447 26.7653 17.6224 26.9879 19.0594 26.7236C20.4964 26.4593 21.8217 25.7211 22.8526 24.611C23.8834 23.5009 24.5688 22.0736 24.8142 20.5261C25.0596 18.9786 24.8529 17.3872 24.2227 15.9716L24.2238 15.9727ZM17.8743 24.4999C17.0523 24.4995 16.2437 24.2756 15.5235 23.8489C15.3001 23.7163 15.0405 23.6725 14.7901 23.7252C13.455 24.012 12.0774 23.9761 10.7567 23.62C9.436 23.264 8.20515 22.5967 7.15294 21.6664C6.10072 20.736 5.25337 19.5657 4.67199 18.24C4.09062 16.9142 3.78972 15.466 3.79101 13.9999C3.79212 13.352 3.85163 12.7057 3.96868 12.0702C4.01769 11.8006 3.97704 11.521 3.85384 11.2804C3.34517 10.2841 3.15059 9.1368 3.29937 8.01115C3.44815 6.88549 3.93225 5.84227 4.67886 5.03836C5.42548 4.23444 6.39426 3.71328 7.43954 3.55324C8.48482 3.3932 9.55009 3.60293 10.4752 4.15089C10.6988 4.28413 10.959 4.32793 11.2097 4.27456C12.5447 3.98798 13.9222 4.02405 15.2428 4.38018C16.5633 4.7363 17.794 5.4036 18.8461 6.33394C19.8982 7.26428 20.7454 8.43448 21.3267 9.76014C21.9081 11.0858 22.2089 12.5339 22.2077 13.9999C22.2066 14.6478 22.1471 15.294 22.03 15.9296C21.981 16.1992 22.0217 16.4788 22.1448 16.7194C22.5535 17.5187 22.7616 18.4189 22.7487 19.3312C22.7358 20.2435 22.5022 21.1364 22.0711 21.9219C21.64 22.7074 21.0262 23.3583 20.2902 23.8103C19.5543 24.2624 18.7216 24.5001 17.8743 24.4999Z" fill="white"/>
</svg>
