<svg width="27" height="27" viewBox="0 0 27 27" fill="none" xmlns="http://www.w3.org/2000/svg">
<path d="M25.3547 4.63116C25.3547 4.43826 25.3036 4.24881 25.2066 4.08206C25.1097 3.9153 24.9703 3.77717 24.8027 3.68171C24.6351 3.58625 24.4452 3.53685 24.2523 3.53853C24.0594 3.54022 23.8704 3.59292 23.7045 3.6913C23.0646 4.0725 22.3755 4.36445 21.6565 4.55903C20.6303 3.67848 19.3214 3.19668 17.9692 3.2017C16.4859 3.20348 15.0613 3.7816 13.9963 4.81401C12.9313 5.84642 12.3091 7.25231 12.2612 8.73483C9.33649 8.26854 6.68574 6.74204 4.81447 4.44646C4.70171 4.30982 4.55779 4.20227 4.3948 4.13285C4.23181 4.06344 4.05453 4.03419 3.87789 4.04757C3.70128 4.06219 3.53089 4.11957 3.38142 4.21478C3.23195 4.30998 3.10791 4.44013 3.01999 4.594C2.56921 5.38074 2.31034 6.26271 2.26438 7.16828C2.21843 8.07386 2.3867 8.9775 2.75552 9.80584L2.75334 9.80693C2.58721 9.90901 2.4501 10.0521 2.35518 10.2224C2.26026 10.3927 2.21071 10.5846 2.21128 10.7796C2.20953 10.94 2.21939 11.1003 2.24079 11.2593C2.35239 12.6342 2.96167 13.9212 3.95439 14.8789C3.88702 15.0073 3.84595 15.1479 3.83356 15.2924C3.82118 15.4369 3.83773 15.5824 3.88226 15.7204C4.31501 17.0691 5.2355 18.2079 6.46359 18.9137C5.21573 19.3961 3.86838 19.5643 2.54023 19.4033C2.29452 19.3727 2.04573 19.4265 1.83458 19.5558C1.62344 19.6852 1.46246 19.8823 1.37802 20.1151C1.29358 20.3479 1.29068 20.6024 1.36979 20.837C1.4489 21.0716 1.60534 21.2724 1.81348 21.4065C4.09778 22.8775 6.75743 23.6595 9.47441 23.6589C12.5554 23.6936 15.5616 22.7091 18.0252 20.8586C20.4888 19.008 22.2718 16.3952 23.0969 13.4265C23.4826 12.1334 23.6795 10.7913 23.6816 9.44191L23.6805 9.22334C24.2511 8.60785 24.6931 7.88462 24.9806 7.09607C25.2681 6.30752 25.3953 5.4695 25.3547 4.63116ZM21.7417 8.14141C21.561 8.35476 21.4694 8.6295 21.486 8.9086C21.4969 9.08892 21.4958 9.27033 21.4958 9.44191C21.4935 10.582 21.3264 11.7157 20.9997 12.8079C20.3261 15.3342 18.8242 17.5613 16.7346 19.1326C14.6449 20.7039 12.0884 21.5285 9.47441 21.4743C8.53579 21.4744 7.60041 21.364 6.68762 21.1453C7.85185 20.7699 8.94039 20.1912 9.90281 19.4361C10.0803 19.2966 10.2102 19.1055 10.2747 18.8892C10.3392 18.6728 10.3351 18.4418 10.263 18.2279C10.1909 18.014 10.0543 17.8276 9.87198 17.6945C9.68968 17.5613 9.47063 17.4879 9.24491 17.4842C8.33644 17.47 7.46897 17.1037 6.82532 16.4624C6.98852 16.4318 7.15063 16.3936 7.31164 16.3477C7.54773 16.2806 7.75435 16.1359 7.89822 15.9371C8.04209 15.7382 8.11484 15.4967 8.10474 15.2515C8.09465 15.0063 8.00229 14.7716 7.84256 14.5852C7.68283 14.3989 7.46502 14.2717 7.22422 14.2243C6.6969 14.1201 6.20072 13.8957 5.77425 13.5686C5.34777 13.2414 5.0025 12.8203 4.76529 12.338C4.96283 12.365 5.16163 12.3818 5.36089 12.3883C5.5977 12.3922 5.82959 12.3205 6.02294 12.1838C6.2163 12.047 6.36107 11.8522 6.43626 11.6276C6.50845 11.4011 6.50482 11.1573 6.42594 10.9331C6.34705 10.7088 6.19721 10.5164 5.99912 10.385C5.51819 10.0649 5.12419 9.63048 4.8524 9.12066C4.58061 8.61085 4.43953 8.04157 4.4418 7.46384C4.4418 7.39171 4.44399 7.31849 4.44836 7.24746C6.89796 9.53222 10.0754 10.879 13.4207 11.0506C13.5896 11.057 13.7578 11.0249 13.9125 10.9568C14.0672 10.8886 14.2043 10.7862 14.3136 10.6572C14.4218 10.5274 14.4985 10.3743 14.5375 10.2099C14.5766 10.0455 14.577 9.87425 14.5387 9.70966C14.4761 9.4487 14.4442 9.18133 14.4436 8.91297C14.4448 7.97829 14.8166 7.08222 15.4775 6.4213C16.1384 5.76038 17.0345 5.38857 17.9692 5.38741C18.4502 5.38599 18.9263 5.48432 19.3674 5.67618C19.8085 5.86805 20.205 6.14928 20.5319 6.50213C20.658 6.63777 20.8166 6.73891 20.9928 6.79592C21.169 6.85292 21.3568 6.8639 21.5385 6.8278C21.9874 6.74053 22.4299 6.62296 22.863 6.4759C22.5677 7.08006 22.1904 7.64053 21.7417 8.14141Z" fill="white"/>
</svg>
